<svg width="34" height="34" viewBox="0 0 34 34" fill="none" xmlns="http://www.w3.org/2000/svg">
<path d="M13.7114 7.83394C13.7114 11.3289 10.8687 14.1673 7.35569 14.1673C3.84267 14.1673 1 11.3289 1 7.83394C1 4.33901 3.84267 1.50061 7.35569 1.50061C10.8687 1.50061 13.7114 4.33901 13.7114 7.83394Z" stroke="#6362E7" stroke-width="2"/>
<path d="M32.1006 7.83394C32.1006 11.3289 29.2579 14.1673 25.7449 14.1673C22.2319 14.1673 19.3892 11.3289 19.3892 7.83394C19.3892 4.33901 22.2319 1.50061 25.7449 1.50061C29.2579 1.50061 32.1006 4.33901 32.1006 7.83394Z" stroke="#6362E7" stroke-width="2"/>
<path d="M13.7114 26.166C13.7114 29.6609 10.8687 32.4993 7.35569 32.4993C3.84267 32.4993 1 29.6609 1 26.166C1 22.671 3.84267 19.8326 7.35569 19.8326C10.8687 19.8326 13.7114 22.671 13.7114 26.166Z" stroke="#6362E7" stroke-width="2"/>
<path d="M32.1003 26.166C32.1003 29.6609 29.2576 32.4993 25.7446 32.4993C22.2316 32.4993 19.3889 29.6609 19.3889 26.166C19.3889 22.671 22.2316 19.8326 25.7446 19.8326C29.2576 19.8326 32.1003 22.671 32.1003 26.166Z" stroke="#6362E7" stroke-width="2"/>
</svg>
