<svg width="16" height="18" viewBox="0 0 16 18" fill="none" xmlns="http://www.w3.org/2000/svg">
<path d="M4.94612 2.40889H4.7854C4.87379 2.40889 4.94612 2.33657 4.94612 2.24818V2.40889H11.0533V2.24818C11.0533 2.33657 11.1256 2.40889 11.214 2.40889H11.0533V3.85532H12.4997V2.24818C12.4997 1.53903 11.9231 0.962463 11.214 0.962463H4.7854C4.07625 0.962463 3.49969 1.53903 3.49969 2.24818V3.85532H4.94612V2.40889ZM15.0711 3.85532H0.928258C0.572677 3.85532 0.2854 4.1426 0.2854 4.49818V5.14104C0.2854 5.22943 0.357722 5.30175 0.446115 5.30175H1.65951L2.15571 15.8084C2.18786 16.4935 2.75437 17.0339 3.43942 17.0339H12.56C13.247 17.0339 13.8115 16.4955 13.8437 15.8084L14.3399 5.30175H15.5533C15.6417 5.30175 15.714 5.22943 15.714 5.14104V4.49818C15.714 4.1426 15.4267 3.85532 15.0711 3.85532ZM12.4053 15.5875H3.59411L3.10795 5.30175H12.8914L12.4053 15.5875Z" fill="#999999"/>
</svg>
