<svg width="63" height="22" viewBox="0 0 63 22" fill="none" xmlns="http://www.w3.org/2000/svg">
<path d="M1.06 21.66C0.86 21.66 0.69 21.6 0.55 21.48C0.41 21.34 0.34 21.16 0.34 20.94V1.41003C0.34 1.19003 0.41 1.01003 0.55 0.870034C0.69 0.730033 0.86 0.660033 1.06 0.660033H3.79C4.01 0.660033 4.18 0.730033 4.3 0.870034C4.44 1.01003 4.51 1.19003 4.51 1.41003V9.15003H13.36V1.41003C13.36 1.19003 13.43 1.01003 13.57 0.870034C13.71 0.730033 13.88 0.660033 14.08 0.660033H16.78C17 0.660033 17.18 0.730033 17.32 0.870034C17.46 1.01003 17.53 1.19003 17.53 1.41003V20.94C17.53 21.14 17.46 21.31 17.32 21.45C17.18 21.59 17 21.66 16.78 21.66H14.08C13.88 21.66 13.71 21.59 13.57 21.45C13.43 21.31 13.36 21.14 13.36 20.94V12.9H4.51V20.94C4.51 21.14 4.44 21.31 4.3 21.45C4.18 21.59 4.01 21.66 3.79 21.66H1.06ZM22.9448 21.66C22.7448 21.66 22.5748 21.59 22.4348 21.45C22.2948 21.31 22.2248 21.14 22.2248 20.94V1.41003C22.2248 1.19003 22.2948 1.01003 22.4348 0.870034C22.5748 0.730033 22.7448 0.660033 22.9448 0.660033H30.7148C33.1348 0.660033 35.0448 1.22003 36.4448 2.34003C37.8448 3.46003 38.5448 5.09003 38.5448 7.23003C38.5448 8.71003 38.1748 9.94003 37.4348 10.92C36.7148 11.9 35.7448 12.61 34.5248 13.05L38.9048 20.7C38.9648 20.82 38.9948 20.93 38.9948 21.03C38.9948 21.21 38.9248 21.36 38.7848 21.48C38.6648 21.6 38.5248 21.66 38.3648 21.66H35.6348C35.2948 21.66 35.0348 21.57 34.8548 21.39C34.6748 21.21 34.5348 21.03 34.4348 20.85L30.5648 13.74H26.3948V20.94C26.3948 21.14 26.3248 21.31 26.1848 21.45C26.0648 21.59 25.8948 21.66 25.6748 21.66H22.9448ZM26.3948 10.35H30.6248C31.8448 10.35 32.7548 10.08 33.3548 9.54003C33.9548 8.98003 34.2548 8.20003 34.2548 7.20003C34.2548 6.20003 33.9548 5.42003 33.3548 4.86003C32.7748 4.28003 31.8648 3.99003 30.6248 3.99003H26.3948V10.35ZM43.1603 21.66C42.9403 21.66 42.7603 21.59 42.6203 21.45C42.4803 21.31 42.4103 21.14 42.4103 20.94V1.41003C42.4103 1.19003 42.4803 1.01003 42.6203 0.870034C42.7603 0.730033 42.9403 0.660033 43.1603 0.660033H45.5303C45.8103 0.660033 46.0203 0.740033 46.1603 0.900033C46.3003 1.04003 46.3903 1.15003 46.4303 1.23003L52.2203 12.03L58.0703 1.23003C58.1103 1.15003 58.2003 1.04003 58.3403 0.900033C58.4803 0.740033 58.6903 0.660033 58.9703 0.660033H61.3103C61.5303 0.660033 61.7103 0.730033 61.8503 0.870034C61.9903 1.01003 62.0603 1.19003 62.0603 1.41003V20.94C62.0603 21.14 61.9903 21.31 61.8503 21.45C61.7103 21.59 61.5303 21.66 61.3103 21.66H58.7903C58.5703 21.66 58.3903 21.59 58.2503 21.45C58.1303 21.31 58.0703 21.14 58.0703 20.94V7.95003L53.8703 15.96C53.7703 16.14 53.6403 16.3 53.4803 16.44C53.3203 16.56 53.1103 16.62 52.8503 16.62H51.6203C51.3403 16.62 51.1203 16.56 50.9603 16.44C50.8203 16.3 50.7003 16.14 50.6003 15.96L46.4003 7.95003V20.94C46.4003 21.14 46.3303 21.31 46.1903 21.45C46.0503 21.59 45.8803 21.66 45.6803 21.66H43.1603Z" fill="#6362E7"/>
</svg>
