<svg width="25" height="24" viewBox="0 0 25 24" fill="none" xmlns="http://www.w3.org/2000/svg">
<path d="M12.1202 2.91016C8.81019 2.91016 6.12019 5.60016 6.12019 8.91016V11.8002C6.12019 12.4102 5.86019 13.3402 5.55019 13.8602L4.40019 15.7702C3.69019 16.9502 4.18019 18.2602 5.48019 18.7002C9.79019 20.1402 14.4402 20.1402 18.7502 18.7002C19.9602 18.3002 20.4902 16.8702 19.8302 15.7702L18.6802 13.8602C18.3802 13.3402 18.1202 12.4102 18.1202 11.8002V8.91016C18.1202 5.61016 15.4202 2.91016 12.1202 2.91016Z" stroke="#6362E7" stroke-width="1.5" stroke-miterlimit="10" stroke-linecap="round"/>
<path d="M13.9705 3.20141C13.6605 3.11141 13.3405 3.04141 13.0105 3.00141C12.0505 2.88141 11.1305 2.95141 10.2705 3.20141C10.5605 2.46141 11.2805 1.94141 12.1205 1.94141C12.9605 1.94141 13.6805 2.46141 13.9705 3.20141Z" stroke="#6362E7" stroke-width="1.5" stroke-miterlimit="10" stroke-linecap="round" stroke-linejoin="round"/>
<path d="M15.1201 19.0586C15.1201 20.7086 13.7701 22.0586 12.1201 22.0586C11.3001 22.0586 10.5401 21.7186 10.0001 21.1786C9.46012 20.6386 9.12012 19.8786 9.12012 19.0586" stroke="#6362E7" stroke-width="1.5" stroke-miterlimit="10"/>
</svg>
