<svg width="18" height="18" viewBox="0 0 18 18" fill="none" xmlns="http://www.w3.org/2000/svg">
<path d="M11.1602 0C7.38257 0 4.32041 3.06215 4.32041 6.83979C4.32041 8.42149 4.85814 9.87719 5.75812 11.0359L0.0522885 16.7417C0.0187911 16.7756 0 16.8212 0 16.8688C0 16.9165 0.0187911 16.9621 0.0522885 16.996L1.00401 17.9477C1.07376 18.0174 1.1885 18.0174 1.25825 17.9477L6.96408 12.2419C8.1228 13.1418 9.5785 13.6796 11.1602 13.6796C14.9378 13.6796 18 10.6174 18 6.83979C18 3.06215 14.9378 0 11.1602 0ZM14.7871 10.4667C13.8196 11.4364 12.5304 11.9696 11.1602 11.9696C9.79 11.9696 8.50078 11.4364 7.53331 10.4667C6.56359 9.4992 6.03036 8.20999 6.03036 6.83979C6.03036 5.46958 6.56359 4.18037 7.53331 3.2129C8.50078 2.24318 9.79 1.70995 11.1602 1.70995C12.5304 1.70995 13.8196 2.24318 14.7871 3.2129C15.7568 4.18037 16.2901 5.46958 16.2901 6.83979C16.2901 8.20999 15.7568 9.4992 14.7871 10.4667Z" fill="#5E5E63"/>
</svg>
